<svg xmlns="http://www.w3.org/2000/svg" xmlns:xlink="http://www.w3.org/1999/xlink" width="600" height="600" viewBox="0 0 600 600">
  <defs>
    <linearGradient id="linear-gradient" x1="0.474" y1="0.213" x2="0.86" y2="0.64" gradientUnits="objectBoundingBox">
      <stop offset="0" stop-color="#09a8b2"/>
      <stop offset="1" stop-color="#f3ba2f"/>
    </linearGradient>
    <filter id="Already_have_an_account_" x="253" y="250" width="94" height="71" filterUnits="userSpaceOnUse">
      <feOffset dy="10" input="SourceAlpha"/>
      <feGaussianBlur stdDeviation="3" result="blur"/>
      <feFlood/>
      <feComposite operator="in" in2="blur"/>
      <feComposite in="SourceGraphic"/>
    </filter>
    <clipPath id="clip-Sign_In_dark_10">
      <rect width="600" height="600"/>
    </clipPath>
  </defs>
  <g id="Sign_In_dark_10" data-name="Sign In (dark) – 10" clip-path="url(#clip-Sign_In_dark_10)">
    <g id="logo" transform="translate(-1247.153 -683.987)" opacity="0">
      <path id="path" d="M1437.042,1089.683a1.033,1.033,0,0,1-2.012.331h.979v-.662h-.979a1.035,1.035,0,0,1,.979-.7v-.662a1.7,1.7,0,1,0,1.7,1.7Z" fill="#7bed8d"/>
      <path id="path-2" data-name="path" d="M1512.817,1089.683h-.662a1.035,1.035,0,0,0-1.034-1.034v-.662A1.7,1.7,0,0,1,1512.817,1089.683Z" transform="translate(-75.112)" fill="#7bed8d" opacity="0.501"/>
    </g>
    <path id="Path_18" data-name="Path 18" d="M190.245,90.931,98.053,1.509a5.015,5.015,0,0,0-7.122,0L1.509,93.7a5.015,5.015,0,0,0,0,7.122L93.7,190.245a5.893,5.893,0,0,0,3.561,1.583,4.3,4.3,0,0,0,3.561-1.583l89.422-92.192a5.893,5.893,0,0,0,1.583-3.561A3.857,3.857,0,0,0,190.245,90.931ZM97.262,179.958,11.8,97.262,94.492,11.8l85.466,82.7Z" transform="translate(204.073 204.073)" fill="url(#linear-gradient)"/>
    <path id="Path_660" data-name="Path 660" d="M181.38,86.694,93.484,1.44a4.781,4.781,0,0,0-6.79,0L1.44,89.335a4.781,4.781,0,0,0,0,6.79l87.9,85.255a5.618,5.618,0,0,0,3.4,1.509,4.1,4.1,0,0,0,3.4-1.509l85.255-87.9a5.618,5.618,0,0,0,1.509-3.4A3.677,3.677,0,0,0,181.38,86.694ZM92.73,171.572,11.248,92.73,90.089,11.248l81.482,78.842Z" transform="translate(97.399 47.543)" fill="url(#linear-gradient)"/>
    <path id="Path_661" data-name="Path 661" d="M181.38,86.694,93.484,1.44a4.781,4.781,0,0,0-6.79,0L1.44,89.335a4.781,4.781,0,0,0,0,6.79l87.9,85.255a5.618,5.618,0,0,0,3.4,1.509,4.1,4.1,0,0,0,3.4-1.509l85.255-87.9a5.618,5.618,0,0,0,1.509-3.4A3.677,3.677,0,0,0,181.38,86.694ZM92.73,171.572,11.248,92.73,90.089,11.248l81.482,78.842Z" transform="translate(-0.025 208.543)" fill="url(#linear-gradient)"/>
    <path id="Path_664" data-name="Path 664" d="M181.38,86.694,93.484,1.44a4.781,4.781,0,0,0-6.79,0L1.44,89.335a4.781,4.781,0,0,0,0,6.79l87.9,85.255a5.618,5.618,0,0,0,3.4,1.509,4.1,4.1,0,0,0,3.4-1.509l85.255-87.9a5.618,5.618,0,0,0,1.509-3.4A3.677,3.677,0,0,0,181.38,86.694ZM92.73,171.572,11.248,92.73,90.089,11.248l81.482,78.842Z" transform="translate(417.111 208.543)" fill="url(#linear-gradient)"/>
    <path id="Path_659" data-name="Path 659" d="M181.38,86.694,93.484,1.44a4.781,4.781,0,0,0-6.79,0L1.44,89.335a4.781,4.781,0,0,0,0,6.79l87.9,85.255a5.618,5.618,0,0,0,3.4,1.509,4.1,4.1,0,0,0,3.4-1.509l85.255-87.9a5.618,5.618,0,0,0,1.509-3.4A3.677,3.677,0,0,0,181.38,86.694ZM92.73,171.572,11.248,92.73,90.089,11.248l81.482,78.842Z" transform="translate(319.383 47.543)" fill="url(#linear-gradient)"/>
    <path id="Path_663" data-name="Path 663" d="M181.38,86.694,93.484,1.44a4.781,4.781,0,0,0-6.79,0L1.44,89.335a4.781,4.781,0,0,0,0,6.79l87.9,85.255a5.618,5.618,0,0,0,3.4,1.509,4.1,4.1,0,0,0,3.4-1.509l85.255-87.9a5.618,5.618,0,0,0,1.509-3.4A3.677,3.677,0,0,0,181.38,86.694ZM92.73,171.572,11.248,92.73,90.089,11.248l81.482,78.842Z" transform="translate(317.383 343.808)" fill="url(#linear-gradient)"/>
    <path id="Path_662" data-name="Path 662" d="M181.38,86.694,93.484,1.44a4.781,4.781,0,0,0-6.79,0L1.44,89.335a4.781,4.781,0,0,0,0,6.79l87.9,85.255a5.618,5.618,0,0,0,3.4,1.509,4.1,4.1,0,0,0,3.4-1.509l85.255-87.9a5.618,5.618,0,0,0,1.509-3.4A3.677,3.677,0,0,0,181.38,86.694ZM92.73,171.572,11.248,92.73,90.089,11.248l81.482,78.842Z" transform="translate(91.407 343.808)" fill="url(#linear-gradient)"/>
    <g transform="matrix(1, 0, 0, 1, 0, 0)" filter="url(#Already_have_an_account_)">
      <text id="Already_have_an_account_2" data-name="Already have an account?" transform="translate(300 264)" fill="#09a8b2" font-size="18" font-family="FelonastSC-Medium, Felona st SC" font-weight="500"><tspan x="-33.012" y="0">TOTAL </tspan><tspan x="-37.44" y="35">SUPPLY</tspan></text>
    </g>
    <text id="_10_000_000_000" data-name="10,000,000,000" transform="translate(300 326)" fill="#fff" font-size="16" font-family="ArialMT, Arial" letter-spacing="-0.01em"><tspan x="-54.569" y="0">10,000,000,000</tspan></text>
  </g>
</svg>
